# xmcd
#
# Track frame offsets:
# 182
# 16075
# 33007
# 52060
# 66872
# 86160
# 103575
# 119957
# 133340
# 148607
# 164530
# 176370
# 191060
#
# Disc length: 2740 seconds
#
#
# Revision: 2
# Processed by: cddbd v1.5.1PL2 Copyright (c) Steve Scherf et al.
# Submitted via: FreeRIP 2.942 
#
DISCID=be0ab20d
DTITLE=Gian e Giovanni - O Melhor de Gian e Gionanni
DYEAR=1998
DGENRE=Country
TTITLE0=O que e que a gente nao faz por amor
TTITLE1=123
TTITLE2=Eu busco uma estela
TTITLE3=Casinha branca
TTITLE4=Amor demais
TTITLE5=Amiga, amigo
TTITLE6=Cade aquele amor
TTITLE7=Nossa Senhora Aparecida
TTITLE8=Doidinho, doidinho
TTITLE9=Depois do adeus
TTITLE10=Nao vivo sem voce
TTITLE11=Um amor para dois amigos
TTITLE12=To pensando nela
EXTD=YEAR: 1998
EXTT0=
EXTT1=
EXTT2=
EXTT3=
EXTT4=
EXTT5=
EXTT6=
EXTT7=
EXTT8=
EXTT9=
EXTT10=
EXTT11=
EXTT12=
PLAYORDER=
